General                          : ChattChitto RG - Movie Release
==========
Complete name                    : Deadline 2009 BDRip.mp4
Format                           : MPEG-4
Format profile                   : Base Media
Codec ID                         : isom
File size                        : 1.58 GiB
Duration                         : 1h 25mn
Overall bit rate                 : 2 665 Kbps
Encoded date                     : UTC 2010-03-01 20:28:59

Video
==========
ID                               : 1
Format                           : AVC
Format/Info                      : Advanced Video Codec
Format profile                   : High@L3.1
Format settings, CABAC           : Yes
Format settings, ReFrames        : 3 frames
Codec ID                         : avc1
Codec ID/Info                    : Advanced Video Coding
Duration                         : 1h 25mn
Bit rate mode                    : Variable
Bit rate                         : 2 300 Kbps
Maximum bit rate                 : 9 877 Kbps
Width                            : 1 280 pixels
Height                           : 544 pixels
Display aspect ratio             : 2.35:1
Frame rate mode                  : Constant
Frame rate                       : 23.976 fps
Resolution                       : 8 bits
Colorimetry                      : 4:2:0
Scan type                        : Progressive
Bits/(Pixel*Frame)               : 0.138
Stream size                      : 1.37 GiB (86%)
Writing library                  : x264 core 76 r1271 496d79d
Encoded date                     : UTC 2010-03-01 19:34:34

Audio
==========
ID                               : 2
Format                           : AAC
Format/Info                      : Advanced Audio Codec
Format version                   : Version 4
Format profile                   : LC
Format settings, SBR             : No
Codec ID                         : 40
Duration                         : 1h 25mn
Bit rate mode                    : Variable
Bit rate                         : 361 Kbps
Maximum bit rate                 : 472 Kbps
Channel(s)                       : 6 channels
Channel positions                : Front: L C R, Rear: L R, LFE
Sampling rate                    : 48.0 KHz
Stream size                      : 220 MiB (14%)
Encoded date                     : UTC 2010-03-01 20:29:43

Subtitles                        : English | Spanish [.srt]



----------------------------------------------------
IMDB Link: http://www.imdb.com/title/tt1242618/
----------------------------------------------------


Screen Shots:
============== 
http://bayimg.com/bAKFKaAcP 
http://bayimg.com/baKfjaACp 
http://bayimg.com/BAKFIAACP 
http://bayimg.com/BaKfGAacp 
http://bayimg.com/bAkfeAacP



Plot:
======
When Alice (Brittany Murphy), a fragile scribe, seeks peace so she can complete her screenplay before a deadline, she moves to a remote, deserted country house. Soon, baffling noises ignite her imagination and pursuit to discover the force behind the mind games. Will she meet her deadline or end up dead?


Release Info:
==============
original name .... : Deadline 2009 BDRip H264 AAC
ripper.............: Recalled2Life (R2L)
encoder............: Recalled2Life (R2L)
video codec........: H264/.MP4
video bitrate......: 2300 Kbps
audio codec........: ACC-LC
aspect ratio.......: 2.35:1  
resolution.........: 1280 x 544                             
genre..............: Thriller | Drama | Horror
runtime............: 1h 25mn
language...........: English
subtitles..........: English | Spanish [.srt]
2ch Audio..........: 2ch Audio for XBox Viewers



Source:
========
Deadline Blue-Ray 1080p MPEG-4 AVC | Dolby TrueHD 5.1 [16.9 GB]


Notes:
=======
ChattChitto RG Encourages Burning this Film with ConvertXtoDVD.
Enhanced and Filtered for your viewing pleasure ;)